<?xml version="1.0" standalone="no"?>
<!DOCTYPE svg PUBLIC "-//W3C//DTD SVG 1.1//EN" "http://www.w3.org/Graphics/SVG/1.1/DTD/svg11.dtd" >
<svg>
<metadata>
Created by FontForge 20090622 at Thu Apr 13 04:44:08 2017
 By deploy user
copyright missing
</metadata>
<defs>
<font id="Marfa009-BoldDisplay" horiz-adv-x="600" >
  <font-face 
    font-family="Marfa 009 Bold Display"
    font-weight="400"
    font-stretch="normal"
    units-per-em="1863"
    panose-1="0 0 5 0 0 0 0 0 0 0"
    ascent="1263"
    descent="-600"
    x-height="881"
    cap-height="1227"
    bbox="-103 -600 1468 1263"
    underline-thickness="50"
    underline-position="-50"
    unicode-range="U+0020-U+FEFC"
  />
<missing-glyph horiz-adv-x="932" 
d="M764 1263v-1863h-591v1863h591zM620 1138h-307v-61h121v-69h-123v-62h309v62h-123v69h123v61zM497 898h-186v-194h309v63h-123v131zM434 835v-68h-61v68h61zM620 654h-309v-62h123v-69h-123v-61h186v130h123v62zM620 542h-61v-123h-248v-63h309v186zM620 315h-186v-105
h63v43h62v-87h-186v149h-62v-211h309v211zM620 -8h-309v-210h309v210zM559 -69v-88h-186v88h186zM620 -261h-309v-61h131l-131 -88v-61h309v61h-190l131 88h59v61z" />
    <glyph glyph-name="uniFEF5" unicode="&#xfedf;&#xfe82;" arabic-form="isolated" 
 />
    <glyph glyph-name="uniFEF6" unicode="&#xfee0;&#xfe82;" arabic-form="final" 
 />
    <glyph glyph-name="uniFEF7" unicode="&#xfedf;&#xfe84;" arabic-form="isolated" 
 />
    <glyph glyph-name="uniFEF8" unicode="&#xfee0;&#xfe84;" arabic-form="final" 
 />
    <glyph glyph-name="uniFEF9" unicode="&#xfedf;&#xfe88;" arabic-form="isolated" 
 />
    <glyph glyph-name="uniFEFA" unicode="&#xfee0;&#xfe88;" arabic-form="final" 
 />
    <glyph glyph-name="uniFEFB" unicode="&#xfedf;&#xfe8e;" arabic-form="isolated" 
 />
    <glyph glyph-name="uniFEFC" unicode="&#xfee0;&#xfe8e;" arabic-form="final" 
 />
    <glyph glyph-name="uni06440671" unicode="&#xfedf;&#xfb51;" 
 />
    <glyph glyph-name="uni06440671.fina" unicode="&#xfee0;&#xfb51;" 
 />
    <glyph glyph-name="uni066E.init" unicode="&#x66e;" 
 />
    <glyph glyph-name="uni066E.medi" unicode="&#x66e;" 
 />
    <glyph glyph-name="uni066E.fina" unicode="&#x66e;" 
 />
    <glyph glyph-name="uni066F.fina" unicode="&#x66f;" 
 />
    <glyph glyph-name="uni06A1.init" unicode="&#x6a1;" 
 />
    <glyph glyph-name="uni06A1.medi" unicode="&#x6a1;" 
 />
    <glyph glyph-name="uni06A1.fina" unicode="&#x6a1;" 
 />
    <glyph glyph-name="uniFB51" unicode="&#x671;" arabic-form="final" 
 />
    <glyph glyph-name="uniFB57" unicode="&#x67e;" arabic-form="final" 
 />
    <glyph glyph-name="uniFB58" unicode="&#x67e;" arabic-form="initial" 
 />
    <glyph glyph-name="uniFB59" unicode="&#x67e;" arabic-form="medial" 
 />
    <glyph glyph-name="uniFB6B" unicode="&#x6a4;" arabic-form="final" 
 />
    <glyph glyph-name="uniFB6C" unicode="&#x6a4;" arabic-form="initial" 
 />
    <glyph glyph-name="uniFB6D" unicode="&#x6a4;" arabic-form="medial" 
 />
    <glyph glyph-name="uniFB7B" unicode="&#x686;" arabic-form="final" 
 />
    <glyph glyph-name="uniFB7C" unicode="&#x686;" arabic-form="initial" 
 />
    <glyph glyph-name="uniFB7D" unicode="&#x686;" arabic-form="medial" 
 />
    <glyph glyph-name="uniFB8B" unicode="&#x698;" arabic-form="final" 
 />
    <glyph glyph-name="uniFB8F" unicode="&#x6a9;" arabic-form="final" 
 />
    <glyph glyph-name="uniFB90" unicode="&#x6a9;" arabic-form="initial" 
 />
    <glyph glyph-name="uniFB91" unicode="&#x6a9;" arabic-form="medial" 
 />
    <glyph glyph-name="uniFB93" unicode="&#x6af;" arabic-form="final" 
 />
    <glyph glyph-name="uniFB94" unicode="&#x6af;" arabic-form="initial" 
 />
    <glyph glyph-name="uniFB95" unicode="&#x6af;" arabic-form="medial" 
 />
    <glyph glyph-name="uniFB9F" unicode="&#x6ba;" arabic-form="final" 
 />
    <glyph glyph-name="uniFBFD" unicode="&#x6cc;" arabic-form="final" 
 />
    <glyph glyph-name="uniFBFE" unicode="&#x6cc;" arabic-form="initial" 
 />
    <glyph glyph-name="uniFBFF" unicode="&#x6cc;" arabic-form="medial" 
 />
    <glyph glyph-name="uniFC02" unicode="&#xfc02;" arabic-form="isolated" 
 />
    <glyph glyph-name="uniFC03" unicode="&#xfc03;" arabic-form="isolated" 
 />
    <glyph glyph-name="uniFC04" unicode="&#xfc04;" arabic-form="isolated" 
 />
    <glyph glyph-name="uniFC08" unicode="&#xfc08;" arabic-form="isolated" 
 />
    <glyph glyph-name="uniFC09" unicode="&#xfc09;" arabic-form="isolated" 
 />
    <glyph glyph-name="uniFC0A" unicode="&#xfc0a;" arabic-form="isolated" 
 />
    <glyph glyph-name="uniFC0E" unicode="&#xfc0e;" arabic-form="isolated" 
 />
    <glyph glyph-name="uniFC0F" unicode="&#xfc0f;" arabic-form="isolated" 
 />
    <glyph glyph-name="uniFC10" unicode="&#xfc10;" arabic-form="isolated" 
 />
    <glyph glyph-name="uniFC12" unicode="&#xfc12;" arabic-form="isolated" 
 />
    <glyph glyph-name="uniFC13" unicode="&#xfc13;" arabic-form="isolated" 
 />
    <glyph glyph-name="uniFC14" unicode="&#xfc14;" arabic-form="isolated" 
 />
    <glyph glyph-name="uniFC1F" unicode="&#xfc1f;" arabic-form="isolated" 
 />
    <glyph glyph-name="uniFC21" unicode="&#xfc21;" arabic-form="isolated" 
 />
    <glyph glyph-name="uniFC25" unicode="&#xfc25;" arabic-form="isolated" 
 />
    <glyph glyph-name="uniFC31" unicode="&#xfc31;" arabic-form="isolated" 
 />
    <glyph glyph-name="uniFC32" unicode="&#xfc32;" arabic-form="isolated" 
 />
    <glyph glyph-name="uniFC35" unicode="&#xfc35;" arabic-form="isolated" 
 />
    <glyph glyph-name="uniFC36" unicode="&#xfc36;" arabic-form="isolated" 
 />
    <glyph glyph-name="uniFC3D" unicode="&#xfc3d;" arabic-form="isolated" 
 />
    <glyph glyph-name="uniFC3E" unicode="&#xfc3e;" arabic-form="isolated" 
 />
    <glyph glyph-name="uniFC42" unicode="&#xfc42;" arabic-form="isolated" 
 />
    <glyph glyph-name="uniFC43" unicode="&#xfc43;" arabic-form="isolated" 
 />
    <glyph glyph-name="uniFC44" unicode="&#xfc44;" arabic-form="isolated" 
 />
    <glyph glyph-name="uniFC4E" unicode="&#xfc4e;" arabic-form="isolated" 
 />
    <glyph glyph-name="uniFC4F" unicode="&#xfc4f;" arabic-form="isolated" 
 />
    <glyph glyph-name="uniFC50" unicode="&#xfc50;" arabic-form="isolated" 
 />
    <glyph glyph-name="uniFC58" unicode="&#xfc58;" arabic-form="isolated" 
 />
    <glyph glyph-name="uniFC64" unicode="&#xfc64;" arabic-form="final" 
 />
    <glyph glyph-name="uniFC65" unicode="&#xfc65;" arabic-form="final" 
 />
    <glyph glyph-name="uniFC66" unicode="&#xfc66;" arabic-form="final" 
 />
    <glyph glyph-name="uniFC67" unicode="&#xfc67;" arabic-form="final" 
 />
    <glyph glyph-name="uniFC68" unicode="&#xfc68;" arabic-form="final" 
 />
    <glyph glyph-name="uniFC69" unicode="&#xfc69;" arabic-form="final" 
 />
    <glyph glyph-name="uniFC6A" unicode="&#xfc6a;" arabic-form="final" 
 />
    <glyph glyph-name="uniFC6B" unicode="&#xfc6b;" arabic-form="final" 
 />
    <glyph glyph-name="uniFC6C" unicode="&#xfc6c;" arabic-form="final" 
 />
    <glyph glyph-name="uniFC6D" unicode="&#xfc6d;" arabic-form="final" 
 />
    <glyph glyph-name="uniFC6E" unicode="&#xfc6e;" arabic-form="final" 
 />
    <glyph glyph-name="uniFC6F" unicode="&#xfc6f;" arabic-form="final" 
 />
    <glyph glyph-name="uniFC70" unicode="&#xfc70;" arabic-form="final" 
 />
    <glyph glyph-name="uniFC71" unicode="&#xfc71;" arabic-form="final" 
 />
    <glyph glyph-name="uniFC72" unicode="&#xfc72;" arabic-form="final" 
 />
    <glyph glyph-name="uniFC73" unicode="&#xfc73;" arabic-form="final" 
 />
    <glyph glyph-name="uniFC74" unicode="&#xfc74;" arabic-form="final" 
 />
    <glyph glyph-name="uniFC75" unicode="&#xfc75;" arabic-form="final" 
 />
    <glyph glyph-name="uniFC76" unicode="&#xfc76;" arabic-form="final" 
 />
    <glyph glyph-name="uniFC77" unicode="&#xfc77;" arabic-form="final" 
 />
    <glyph glyph-name="uniFC78" unicode="&#xfc78;" arabic-form="final" 
 />
    <glyph glyph-name="uniFC79" unicode="&#xfc79;" arabic-form="final" 
 />
    <glyph glyph-name="uniFC7A" unicode="&#xfc7a;" arabic-form="final" 
 />
    <glyph glyph-name="uniFC7B" unicode="&#xfc7b;" arabic-form="final" 
 />
    <glyph glyph-name="uniFC83" unicode="&#xfc83;" arabic-form="final" 
 />
    <glyph glyph-name="uniFC84" unicode="&#xfc84;" arabic-form="final" 
 />
    <glyph glyph-name="uniFC86" unicode="&#xfc86;" arabic-form="final" 
 />
    <glyph glyph-name="uniFC87" unicode="&#xfc87;" arabic-form="final" 
 />
    <glyph glyph-name="uniFC8A" unicode="&#xfc8a;" arabic-form="final" 
 />
    <glyph glyph-name="uniFC8B" unicode="&#xfc8b;" arabic-form="final" 
 />
    <glyph glyph-name="uniFC8C" unicode="&#xfc8c;" arabic-form="final" 
 />
    <glyph glyph-name="uniFC8D" unicode="&#xfc8d;" arabic-form="final" 
 />
    <glyph glyph-name="uniFC8E" unicode="&#xfc8e;" arabic-form="final" 
 />
    <glyph glyph-name="uniFC8F" unicode="&#xfc8f;" arabic-form="final" 
 />
    <glyph glyph-name="uniFC91" unicode="&#xfc91;" arabic-form="final" 
 />
    <glyph glyph-name="uniFC92" unicode="&#xfc92;" arabic-form="final" 
 />
    <glyph glyph-name="uniFC93" unicode="&#xfc93;" arabic-form="final" 
 />
    <glyph glyph-name="uniFC94" unicode="&#xfc94;" arabic-form="final" 
 />
    <glyph glyph-name="uniFC9A" unicode="&#xfc9a;" arabic-form="initial" 
 />
    <glyph glyph-name="uniFC9B" unicode="&#xfc9b;" arabic-form="initial" 
 />
    <glyph glyph-name="uniFC9F" unicode="&#xfc9f;" arabic-form="initial" 
 />
    <glyph glyph-name="uniFCA0" unicode="&#xfca0;" arabic-form="initial" 
 />
    <glyph glyph-name="uniFCA4" unicode="&#xfca4;" arabic-form="initial" 
 />
    <glyph glyph-name="uniFCA5" unicode="&#xfca5;" arabic-form="initial" 
 />
    <glyph glyph-name="uniFCA6" unicode="&#xfca6;" arabic-form="initial" 
 />
    <glyph glyph-name="uniFCB0" unicode="&#xfcb0;" arabic-form="initial" 
 />
    <glyph glyph-name="uniFCB3" unicode="&#xfcb3;" arabic-form="initial" 
 />
    <glyph glyph-name="uniFCB7" unicode="&#xfcb7;" arabic-form="initial" 
 />
    <glyph glyph-name="uniFCCC" unicode="&#xfccc;" arabic-form="initial" 
 />
    <glyph glyph-name="uniFCD5" unicode="&#xfcd5;" arabic-form="initial" 
 />
    <glyph glyph-name="uniFCD6" unicode="&#xfcd6;" arabic-form="initial" 
 />
    <glyph glyph-name="uniFCDD" unicode="&#xfcdd;" arabic-form="initial" 
 />
    <glyph glyph-name="uniFCDE" unicode="&#xfcde;" arabic-form="initial" 
 />
    <glyph glyph-name="uniFCDF" unicode="&#xfcdf;" arabic-form="medial" 
 />
    <glyph glyph-name="uniFCE0" unicode="&#xfce0;" arabic-form="medial" 
 />
    <glyph glyph-name="uniFCE1" unicode="&#xfce1;" arabic-form="medial" 
 />
    <glyph glyph-name="uniFCE2" unicode="&#xfce2;" arabic-form="medial" 
 />
    <glyph glyph-name="uniFCE3" unicode="&#xfce3;" arabic-form="medial" 
 />
    <glyph glyph-name="uniFCE4" unicode="&#xfce4;" arabic-form="medial" 
 />
    <glyph glyph-name="uniFCE5" unicode="&#xfce5;" arabic-form="medial" 
 />
    <glyph glyph-name="uniFCE6" unicode="&#xfce6;" arabic-form="medial" 
 />
    <glyph glyph-name="uniFCE7" unicode="&#xfce7;" arabic-form="medial" 
 />
    <glyph glyph-name="uniFCE8" unicode="&#xfce8;" arabic-form="medial" 
 />
    <glyph glyph-name="uniFCE9" unicode="&#xfce9;" arabic-form="medial" 
 />
    <glyph glyph-name="uniFCEA" unicode="&#xfcea;" arabic-form="medial" 
 />
    <glyph glyph-name="uniFCEE" unicode="&#xfcee;" arabic-form="medial" 
 />
    <glyph glyph-name="uniFCEF" unicode="&#xfcef;" arabic-form="medial" 
 />
    <glyph glyph-name="uniFCF0" unicode="&#xfcf0;" arabic-form="medial" 
 />
    <glyph glyph-name="uniFCF1" unicode="&#xfcf1;" arabic-form="medial" 
 />
    <glyph glyph-name="uniFCFB" unicode="&#xfcfb;" arabic-form="isolated" 
 />
    <glyph glyph-name="uniFCFC" unicode="&#xfcfc;" arabic-form="isolated" 
 />
    <glyph glyph-name="uniFCFD" unicode="&#xfcfd;" arabic-form="isolated" 
 />
    <glyph glyph-name="uniFCFE" unicode="&#xfcfe;" arabic-form="isolated" 
 />
    <glyph glyph-name="uniFD03" unicode="&#xfd03;" arabic-form="isolated" 
 />
    <glyph glyph-name="uniFD05" unicode="&#xfd05;" arabic-form="isolated" 
 />
    <glyph glyph-name="uniFD06" unicode="&#xfd06;" arabic-form="isolated" 
 />
    <glyph glyph-name="uniFD07" unicode="&#xfd07;" arabic-form="isolated" 
 />
    <glyph glyph-name="uniFD08" unicode="&#xfd08;" arabic-form="isolated" 
 />
    <glyph glyph-name="uniFD0C" unicode="&#xfd0c;" arabic-form="isolated" 
 />
    <glyph glyph-name="uniFD0D" unicode="&#xfd0d;" arabic-form="isolated" 
 />
    <glyph glyph-name="uniFD0E" unicode="&#xfd0e;" arabic-form="isolated" 
 />
    <glyph glyph-name="uniFD0F" unicode="&#xfd0f;" arabic-form="isolated" 
 />
    <glyph glyph-name="uniFD10" unicode="&#xfd10;" arabic-form="isolated" 
 />
    <glyph glyph-name="uniFD17" unicode="&#xfd17;" arabic-form="final" 
 />
    <glyph glyph-name="uniFD18" unicode="&#xfd18;" arabic-form="final" 
 />
    <glyph glyph-name="uniFD19" unicode="&#xfd19;" arabic-form="final" 
 />
    <glyph glyph-name="uniFD1A" unicode="&#xfd1a;" arabic-form="final" 
 />
    <glyph glyph-name="uniFD1F" unicode="&#xfd1f;" arabic-form="final" 
 />
    <glyph glyph-name="uniFD20" unicode="&#xfd20;" arabic-form="final" 
 />
    <glyph glyph-name="uniFD21" unicode="&#xfd21;" arabic-form="final" 
 />
    <glyph glyph-name="uniFD22" unicode="&#xfd22;" arabic-form="final" 
 />
    <glyph glyph-name="uniFD23" unicode="&#xfd23;" arabic-form="final" 
 />
    <glyph glyph-name="uniFD24" unicode="&#xfd24;" arabic-form="final" 
 />
    <glyph glyph-name="uniFD28" unicode="&#xfd28;" arabic-form="final" 
 />
    <glyph glyph-name="uniFD29" unicode="&#xfd29;" arabic-form="final" 
 />
    <glyph glyph-name="uniFD2A" unicode="&#xfd2a;" arabic-form="final" 
 />
    <glyph glyph-name="uniFD2B" unicode="&#xfd2b;" arabic-form="final" 
 />
    <glyph glyph-name="uniFD2C" unicode="&#xfd2c;" arabic-form="final" 
 />
    <glyph glyph-name="uniFD30" unicode="&#xfd30;" arabic-form="initial" 
 />
    <glyph glyph-name="uniFD31" unicode="&#xfd31;" arabic-form="initial" 
 />
    <glyph glyph-name="uniFD32" unicode="&#xfd32;" arabic-form="initial" 
 />
    <glyph glyph-name="uniFDF2" unicode="&#xfdf2;" arabic-form="isolated" 
 />
    <glyph glyph-name="uniFE82" unicode="&#x622;" arabic-form="final" 
 />
    <glyph glyph-name="uniFE84" unicode="&#x623;" arabic-form="final" 
 />
    <glyph glyph-name="uniFE86" unicode="&#x624;" arabic-form="final" 
 />
    <glyph glyph-name="uniFE88" unicode="&#x625;" arabic-form="final" 
 />
    <glyph glyph-name="uniFE8A" unicode="&#x626;" arabic-form="final" 
 />
    <glyph glyph-name="uniFE8B" unicode="&#x626;" arabic-form="initial" 
 />
    <glyph glyph-name="uniFE8C" unicode="&#x626;" arabic-form="medial" 
 />
    <glyph glyph-name="uniFE8E" unicode="&#x627;" arabic-form="final" 
 />
    <glyph glyph-name="uniFE90" unicode="&#x628;" arabic-form="final" 
 />
    <glyph glyph-name="uniFE91" unicode="&#x628;" arabic-form="initial" 
 />
    <glyph glyph-name="uniFE92" unicode="&#x628;" arabic-form="medial" 
 />
    <glyph glyph-name="uniFE94" unicode="&#x629;" arabic-form="final" 
 />
    <glyph glyph-name="uniFE96" unicode="&#x62a;" arabic-form="final" 
 />
    <glyph glyph-name="uniFE97" unicode="&#x62a;" arabic-form="initial" 
 />
    <glyph glyph-name="uniFE98" unicode="&#x62a;" arabic-form="medial" 
 />
    <glyph glyph-name="uniFE9A" unicode="&#x62b;" arabic-form="final" 
 />
    <glyph glyph-name="uniFE9B" unicode="&#x62b;" arabic-form="initial" 
 />
    <glyph glyph-name="uniFE9C" unicode="&#x62b;" arabic-form="medial" 
 />
    <glyph glyph-name="uniFE9E" unicode="&#x62c;" arabic-form="final" 
 />
    <glyph glyph-name="uniFE9F" unicode="&#x62c;" arabic-form="initial" 
 />
    <glyph glyph-name="uniFEA0" unicode="&#x62c;" arabic-form="medial" 
 />
    <glyph glyph-name="uniFEA2" unicode="&#x62d;" arabic-form="final" 
 />
    <glyph glyph-name="uniFEA3" unicode="&#x62d;" arabic-form="initial" 
 />
    <glyph glyph-name="uniFEA4" unicode="&#x62d;" arabic-form="medial" 
 />
    <glyph glyph-name="uniFEA6" unicode="&#x62e;" arabic-form="final" 
 />
    <glyph glyph-name="uniFEA7" unicode="&#x62e;" arabic-form="initial" 
 />
    <glyph glyph-name="uniFEA8" unicode="&#x62e;" arabic-form="medial" 
 />
    <glyph glyph-name="uniFEAA" unicode="&#x62f;" arabic-form="final" 
 />
    <glyph glyph-name="uniFEAC" unicode="&#x630;" arabic-form="final" 
 />
    <glyph glyph-name="uniFEAE" unicode="&#x631;" arabic-form="final" 
 />
    <glyph glyph-name="uniFEB0" unicode="&#x632;" arabic-form="final" 
 />
    <glyph glyph-name="uniFEB2" unicode="&#x633;" arabic-form="final" 
 />
    <glyph glyph-name="uniFEB3" unicode="&#x633;" arabic-form="initial" 
 />
    <glyph glyph-name="uniFEB4" unicode="&#x633;" arabic-form="medial" 
 />
    <glyph glyph-name="uniFEB6" unicode="&#x634;" arabic-form="final" 
 />
    <glyph glyph-name="uniFEB7" unicode="&#x634;" arabic-form="initial" 
 />
    <glyph glyph-name="uniFEB8" unicode="&#x634;" arabic-form="medial" 
 />
    <glyph glyph-name="uniFEBA" unicode="&#x635;" arabic-form="final" 
 />
    <glyph glyph-name="uniFEBB" unicode="&#x635;" arabic-form="initial" 
 />
    <glyph glyph-name="uniFEBC" unicode="&#x635;" arabic-form="medial" 
 />
    <glyph glyph-name="uniFEBE" unicode="&#x636;" arabic-form="final" 
 />
    <glyph glyph-name="uniFEBF" unicode="&#x636;" arabic-form="initial" 
 />
    <glyph glyph-name="uniFEC0" unicode="&#x636;" arabic-form="medial" 
 />
    <glyph glyph-name="uniFEC2" unicode="&#x637;" arabic-form="final" 
 />
    <glyph glyph-name="uniFEC3" unicode="&#x637;" arabic-form="initial" 
 />
    <glyph glyph-name="uniFEC4" unicode="&#x637;" arabic-form="medial" 
 />
    <glyph glyph-name="uniFEC6" unicode="&#x638;" arabic-form="final" 
 />
    <glyph glyph-name="uniFEC7" unicode="&#x638;" arabic-form="initial" 
 />
    <glyph glyph-name="uniFEC8" unicode="&#x638;" arabic-form="medial" 
 />
    <glyph glyph-name="uniFECA" unicode="&#x639;" arabic-form="final" 
 />
    <glyph glyph-name="uniFECB" unicode="&#x639;" arabic-form="initial" 
 />
    <glyph glyph-name="uniFECC" unicode="&#x639;" arabic-form="medial" 
 />
    <glyph glyph-name="uniFECE" unicode="&#x63a;" arabic-form="final" 
 />
    <glyph glyph-name="uniFECF" unicode="&#x63a;" arabic-form="initial" 
 />
    <glyph glyph-name="uniFED0" unicode="&#x63a;" arabic-form="medial" 
 />
    <glyph glyph-name="uniFED2" unicode="&#x641;" arabic-form="final" 
 />
    <glyph glyph-name="uniFED3" unicode="&#x641;" arabic-form="initial" 
 />
    <glyph glyph-name="uniFED4" unicode="&#x641;" arabic-form="medial" 
 />
    <glyph glyph-name="uniFED6" unicode="&#x642;" arabic-form="final" 
 />
    <glyph glyph-name="uniFED7" unicode="&#x642;" arabic-form="initial" 
 />
    <glyph glyph-name="uniFED8" unicode="&#x642;" arabic-form="medial" 
 />
    <glyph glyph-name="uniFEDA" unicode="&#x643;" arabic-form="final" 
 />
    <glyph glyph-name="uniFEDB" unicode="&#x643;" arabic-form="initial" 
 />
    <glyph glyph-name="uniFEDC" unicode="&#x643;" arabic-form="medial" 
 />
    <glyph glyph-name="uniFEDE" unicode="&#x644;" arabic-form="final" 
 />
    <glyph glyph-name="uniFEDF" unicode="&#x644;" arabic-form="initial" 
 />
    <glyph glyph-name="uniFEE0" unicode="&#x644;" arabic-form="medial" 
 />
    <glyph glyph-name="uniFEE2" unicode="&#x645;" arabic-form="final" 
 />
    <glyph glyph-name="uniFEE3" unicode="&#x645;" arabic-form="initial" 
 />
    <glyph glyph-name="uniFEE4" unicode="&#x645;" arabic-form="medial" 
 />
    <glyph glyph-name="uniFEE6" unicode="&#x646;" arabic-form="final" 
 />
    <glyph glyph-name="uniFEE7" unicode="&#x646;" arabic-form="initial" 
 />
    <glyph glyph-name="uniFEE8" unicode="&#x646;" arabic-form="medial" 
 />
    <glyph glyph-name="uniFEEA" unicode="&#x647;" arabic-form="final" 
 />
    <glyph glyph-name="uniFEEB" unicode="&#x647;" arabic-form="initial" 
 />
    <glyph glyph-name="uniFEEC" unicode="&#x647;" arabic-form="medial" 
 />
    <glyph glyph-name="uniFEEE" unicode="&#x648;" arabic-form="final" 
 />
    <glyph glyph-name="uniFEF0" unicode="&#x649;" arabic-form="final" 
 />
    <glyph glyph-name="uniFEF2" unicode="&#x64a;" arabic-form="final" 
 />
    <glyph glyph-name="uniFEF3" unicode="&#x64a;" arabic-form="initial" 
 />
    <glyph glyph-name="uniFEF4" unicode="&#x64a;" arabic-form="medial" 
 />
    <glyph glyph-name=".notdef" horiz-adv-x="932" 
d="M764 1263v-1863h-591v1863h591zM620 1138h-307v-61h121v-69h-123v-62h309v62h-123v69h123v61zM497 898h-186v-194h309v63h-123v131zM434 835v-68h-61v68h61zM620 654h-309v-62h123v-69h-123v-61h186v130h123v62zM620 542h-61v-123h-248v-63h309v186zM620 315h-186v-105
h63v43h62v-87h-186v149h-62v-211h309v211zM620 -8h-309v-210h309v210zM559 -69v-88h-186v88h186zM620 -261h-309v-61h131l-131 -88v-61h309v61h-190l131 88h59v61z" />
    <glyph glyph-name=".null" horiz-adv-x="0" 
 />
    <glyph glyph-name="nonmarkingreturn" horiz-adv-x="621" 
 />
    <glyph glyph-name="space" unicode=" " horiz-adv-x="400" 
 />
    <glyph glyph-name="exclam" unicode="!" horiz-adv-x="390" 
d="M155 564v470l-80 132l133 97l9 -7q3 -3 15.5 -27t27.5 -75t15 -100v-784h-82q-38 152 -38 294zM223 -55q-43 0 -72 31t-29 74q0 42 29 72.5t72 30.5t72 -30.5t29 -72.5q0 -43 -29 -74t-72 -31z" />
    <glyph glyph-name="quotedbl" unicode="&#x22;" 
 />
    <glyph glyph-name="numbersign" unicode="#" 
 />
    <glyph glyph-name="quotesingle" unicode="'" 
 />
    <glyph glyph-name="parenleft" unicode="(" 
 />
    <glyph glyph-name="parenright" unicode=")" 
 />
    <glyph glyph-name="asterisk" unicode="*" 
 />
    <glyph glyph-name="comma" unicode="," horiz-adv-x="353" 
d="M303 52q0 -45 -46.5 -141.5t-95.5 -158.5l-86 45l112 173q-51 22 -71 30q-46 12 -25 84q17 62 59 101q23 22 41 18q112 -27 112 -151z" />
    <glyph glyph-name="hyphen" unicode="-" 
 />
    <glyph glyph-name="period" unicode="." horiz-adv-x="352" 
d="M176 -51q-43 0 -72 39.5t-29 94.5q0 53 29 92.5t72 39.5t72 -39.5t29 -92.5q0 -55 -29 -94.5t-72 -39.5z" />
    <glyph glyph-name="slash" unicode="/" 
 />
    <glyph glyph-name="zero" unicode="0" horiz-adv-x="1000" 
d="M504 -22q-124 0 -228.5 81.5t-165 222.5t-60.5 309q0 112 37.5 227t94.5 185q145 179 303 179q62 0 126.5 -24.5t125.5 -74.5t108.5 -118.5t76 -166t28.5 -207.5q0 -100 -27 -199t-72 -177q-81 -127 -160 -182t-187 -55zM502 213q156 -26 251.5 66.5t95.5 271.5
q0 59 -23 122t-65.5 120t-111 99t-151.5 55q-159 24 -253 -67.5t-94 -275.5q0 -44 14 -92t43.5 -96.5t70 -89.5t98.5 -71.5t125 -41.5z" />
    <glyph glyph-name="one" unicode="1" horiz-adv-x="505" 
d="M314 1140q17 -15 29 -77t12 -145v-231v-194v-493h-94l-7 65q-11 94 -11 210v218v194v214l-190 -10l37 214l217 52z" />
    <glyph glyph-name="two" unicode="2" horiz-adv-x="812" 
d="M677 244l85 -104l-22 -35l-28 -44t-23.5 -28.5t-22.5 -19t-30 -8.5t-40.5 -5h-58.5h-443v216q53 0 95 31.5t84 85.5l32 41q249 320 249 406q0 79 -51 123.5t-143 44.5q-74 0 -119 -35.5t-55 -84.5l-10 -48l-123 52q15 158 105 245.5t205 87.5q140 0 224.5 -82.5
t84.5 -240.5q0 -34 -6 -71t-13.5 -68.5t-23.5 -70.5l-27.5 -65.5t-33 -65.5l-33 -58.5t-35.5 -56l-31.5 -47.5l-30.5 -43t-23 -33l-45 -56l21 9h250z" />
    <glyph glyph-name="three" unicode="3" horiz-adv-x="875" 
d="M668 617q68 -47 100 -104t32 -148q0 -166 -107 -271.5t-270 -105.5q-141 0 -240.5 73.5t-132.5 186.5l105 94q24 -60 94.5 -98.5t163.5 -38.5q127 0 195.5 36t68.5 106q0 83 -110 111.5t-288 -1.5l49 228q62 7 123 7q115 37 164.5 70.5t49.5 77.5q0 112 -194 112
q-88 0 -151 -39t-99 -95l-138 107q55 115 159 179.5t232 64.5q145 0 227 -83t82 -235q0 -74 -33.5 -137.5t-81.5 -96.5z" />
    <glyph glyph-name="four" unicode="4" horiz-adv-x="863" 
d="M788 362l-29.5 -46t-22.5 -35.5t-16.5 -22.5t-17 -17t-18 -8.5t-24 -6.5t-32.5 -2v-224h-94l-7 65q-11 112 -11 135v22h-506l7 216q32 0 53 32l507 687q20 -19 35.5 -83.5t15.5 -127.5v-508h39l36 28zM259 438h257v392l-27 -50l-268 -363z" />
    <glyph glyph-name="five" unicode="5" horiz-adv-x="941" 
d="M158 574l98 583h374q80 0 109 -13t98 -77l29 -27l-97 -132l-34 27h-400l-31 -173q71 15 173 15q168 0 272.5 -103t104.5 -283q0 -172 -121 -290t-285 -118q-145 0 -243 70t-130 195l105 94q12 -59 87.5 -100.5t170.5 -41.5q129 0 211 49.5t82 141.5q0 88 -64.5 122
t-191.5 34q-166 0 -302 -34z" />
    <glyph glyph-name="six" unicode="6" horiz-adv-x="977" 
d="M533 766q173 0 271 -95t98 -293q0 -164 -113 -281.5t-279 -117.5q-189 0 -299.5 144t-110.5 370q0 83 14.5 172t48 181.5t82 164.5t123 118t163.5 46q77 0 138 -20t149 -72l-99 -195q-25 19 -83.5 40.5t-125.5 21.5q-266 0 -301 -327l27 38l26 17q71 46 134 67t137 21z
M543 195q111 0 174.5 50.5t63.5 132.5q0 42 -12 72.5t-32.5 48.5t-53.5 29t-68.5 14.5t-83.5 3.5q-89 0 -172.5 -37.5t-142.5 -103.5q67 -210 327 -210z" />
    <glyph glyph-name="seven" unicode="7" horiz-adv-x="907" 
d="M286 1157h596l-7 -222l-22.5 -15t-16 -10.5t-11.5 -10.5t-11 -14.5t-13 -24.5t-18.5 -38t-26.5 -57l-38.5 -79l-52.5 -107l-70 -139q-102 -201 -135.5 -282t-42.5 -158l-80 39q-31 60 8 172.5t145 315.5l226 435l-29 -27h-506l-34 -27l-97 132q86 79 103 90q35 24 93 26
q15 1 40 1z" />
    <glyph glyph-name="eight" unicode="8" horiz-adv-x="940" 
d="M680 641q71 -22 135.5 -115t64.5 -194q0 -171 -102 -260.5t-304 -89.5q-203 0 -308.5 88t-105.5 262q0 89 47.5 173t122.5 106q-41 6 -77.5 46t-56.5 92t-20 100q0 162 101 246t263 84q155 0 256.5 -87.5t101.5 -242.5q0 -52 -35.5 -121.5t-82.5 -86.5zM195 873
q0 -55 85.5 -92t240.5 -53q98 39 129 64.5t31 80.5q0 32 -34 54t-87 31.5t-122 9.5q-96 0 -169.5 -26t-73.5 -69zM474 196q105 0 196.5 30t91.5 74q0 58 -50 103.5t-124.5 70t-163.5 32.5q-130 -32 -192.5 -82.5t-62.5 -123.5q0 -49 89.5 -76.5t215.5 -27.5z" />
    <glyph glyph-name="nine" unicode="9" horiz-adv-x="963" 
d="M460 1178q193 0 301.5 -145t108.5 -408q0 -83 -15 -168.5t-50 -171.5t-85.5 -152.5t-129.5 -108.5t-174 -42q-77 0 -138 20t-149 72l72 195q22 -16 95 -39t141 -23q157 0 233.5 83.5t90.5 237.5l-27 -41q-94 -65 -157.5 -90t-139.5 -25q-163 0 -266 108.5t-103 285.5
q0 172 110.5 292t281.5 120zM439 592q97 0 181.5 31.5t133.5 91.5q-44 247 -312 247q-114 0 -183.5 -56.5t-69.5 -139.5q0 -82 69 -128t181 -46z" />
    <glyph glyph-name="colon" unicode=":" 
 />
    <glyph glyph-name="semicolon" unicode=";" 
 />
    <glyph glyph-name="question" unicode="?" horiz-adv-x="802" 
d="M383 1263q168 0 268.5 -93.5t100.5 -253.5q0 -69 -15 -124.5t-35 -90t-54 -64.5t-58.5 -44.5t-63.5 -33.5q-38 -19 -72 -19q-10 0 -11.5 -4t0.5 -28q6 -81 3 -182l-135 -29q-1 70 -0.5 119t5.5 92t8.5 69t17 52t22 38.5t33 30.5t40.5 27.5t53 29.5q90 49 112 71t22 62
q0 78 -65.5 115.5t-175.5 37.5q-144 0 -230 -110l-103 129q115 203 333 203zM380 -55q-43 0 -72 31t-29 74q0 42 29 72.5t72 30.5t72 -30.5t29 -72.5q0 -43 -29 -74t-72 -31z" />
    <glyph glyph-name="A" unicode="A" horiz-adv-x="1038" 
d="M926 247l112 -79l-117 -168q-42 20 -96 160l-78 212h-464l-155 -372h-127l455 1082l18 53q-10 38 11 81l89 25l12 -24q0 -28 26 -104zM352 552h337l-166 449l-33 -118z" />
    <glyph glyph-name="B" unicode="B" horiz-adv-x="1181" 
d="M879 699q105 -27 163.5 -102t58.5 -162q0 -91 -33.5 -169t-79.5 -125.5t-101.5 -82.5t-93 -49.5t-59.5 -18.5q-100 -1 -201.5 45t-176.5 127q-4 -18 -9.5 -36t-12 -33l-12 -27.5t-12.5 -24.5l-11 -18.5t-9.5 -14t-5.5 -8.5l-118 129l78 77v738q0 21 3 36q0 4 -2 5
q-33 5 -110 90l142 152l87 -73l113 60q88 28 179 28q169 0 274 -89.5t105 -233.5q0 -65 -44 -127.5t-112 -92.5zM682 1024q-95 0 -191 -30.5t-127 -70.5v-167h300q102 0 175.5 47t73.5 108q0 50 -69.5 81.5t-161.5 31.5zM735 210q95 28 169.5 96.5t74.5 128.5
q0 64 -97 102.5t-256 38.5h-262v-180q32 -60 151 -124.5t222 -61.5h-2z" />
    <glyph glyph-name="C" unicode="C" horiz-adv-x="1148" 
d="M935 846q-24 56 -130 109.5t-213 53.5q-169 0 -278 -99.5t-109 -252.5q0 -196 136 -316.5t357 -120.5q89 0 171.5 40t106.5 101h17l105 -92q-128 -281 -448 -281q-243 0 -396.5 178.5t-153.5 459.5q0 273 146 444t380 171q147 0 264.5 -70.5t185.5 -198.5l-129 -129z" />
    <glyph glyph-name="D" unicode="D" horiz-adv-x="1262" 
d="M135 1075l142 152l87 -73l86 68q93 12 176 12q153 0 278 -84.5t194 -224t69 -301.5q0 -167 -61 -310t-173.5 -229.5t-252.5 -86.5q-129 0 -278 102l-49 48q-6 -23 -14 -45t-17 -39.5t-15.5 -29t-14.5 -22.5l-8 -12l-118 129l78 77v738q0 21 3 36q0 4 -2 5q-33 5 -110 90z
M364 395q61 -65 158 -115t196 -50q155 0 249.5 99t94.5 242q0 112 -57.5 213.5t-162 165.5t-228.5 64q-67 0 -139 -17t-111 -37v-565z" />
    <glyph glyph-name="E" unicode="E" horiz-adv-x="1031" 
d="M829 220l31 24l91 -102l-33.5 -48l-25.5 -37t-19 -24.5t-17.5 -18t-17 -8.5t-22.5 -5.5t-29 -0.5h-488l-164 102q45 75 73 90q5 3 5.5 6t0.5 21v20v749v20q0 17 -0.5 20.5t-5.5 6.5q-28 15 -73 90l164 102h488q18 0 29 -0.5t22.5 -5.5t17 -8.5t17.5 -18t19 -24.5
l25.5 -37l33.5 -48l-91 -102l-31 24h-495v-267h511l-33 -196h-478v-324h495z" />
    <glyph glyph-name="F" unicode="F" horiz-adv-x="993" 
d="M334 1007v-267h511l-33 -196h-478v-338l78 -77l-118 -129q-1 1 -8 11.5t-13 21l-15 27.5t-16 36t-14 41.5t-10.5 49.5t-3.5 55v746v20q0 17 -0.5 20.5t-5.5 6.5q-28 15 -73 90l164 102h488q18 0 29 -0.5t22.5 -5.5t17 -8.5t17.5 -18t19 -24.5l25.5 -37l33.5 -48l-91 -102
l-31 24h-495z" />
    <glyph glyph-name="G" unicode="G" horiz-adv-x="1206" 
d="M593 540q25 51 83.5 75.5t120.5 24.5h354q0 -353 -124 -503t-414 -150q-225 0 -371.5 171t-146.5 447q0 275 146.5 451.5t379.5 176.5q191 0 329.5 -101.5t170.5 -259.5l-122 -51l-9 5q-68 175 -373 175q-178 0 -298 -110t-120 -266q0 -181 109 -293.5t326 -112.5
q86 0 152.5 13t109 34.5t71.5 53.5t43 65.5t20 74.5h-314l-35 -31z" />
    <glyph glyph-name="H" unicode="H" horiz-adv-x="1270" 
d="M1062 206l78 -77l-118 -129q-1 1 -8 11.5t-13 21l-15 27.5t-16 36t-14 41.5t-10.5 49.5t-3.5 55v290h-578v-326l78 -77l-118 -129q-1 1 -8 11.5t-13 21l-15 27.5t-16 36t-14 41.5t-10.5 49.5t-3.5 55v702q0 21 3 36q0 4 -2 5q-33 5 -110 90l142 152l87 -73v-442h578v232
q0 21 3 36q0 4 -2 5q-33 5 -110 90l142 152l87 -73v-948z" />
    <glyph glyph-name="I" unicode="I" horiz-adv-x="378" 
d="M260 206l78 -77l-118 -129q-1 1 -8 11.5t-13 21l-15 27.5t-16 36t-14 41.5t-10.5 49.5t-3.5 55v784q0 8 -1.5 10.5t-7.5 7.5t-14.5 11.5t-26.5 27.5t-40 51l157 93l53 -36v-985z" />
    <glyph glyph-name="J" unicode="J" horiz-adv-x="451" 
d="M298 1227l53 -36v-1038q0 -178 -60.5 -278.5t-172.5 -100.5q-87 0 -145.5 49t-75.5 121l113 109l15 -30q14 -13 41.5 -21t53.5 -8q56 0 83.5 31.5t27.5 127.5v873q0 8 -1.5 10.5t-7.5 7.5t-14.5 11.5t-26.5 27.5t-40 51z" />
    <glyph glyph-name="K" unicode="K" horiz-adv-x="1089" 
d="M992 249l44 -221q-28 -28 -61 -28q-30 0 -63.5 31.5t-115.5 131.5l-332 404l-100 -101v-260l78 -77l-118 -129q-1 1 -8 11.5t-13 21l-15 27.5t-16 36t-14 41.5t-10.5 49.5t-3.5 55v702q0 21 3 36q0 4 -2 5q-33 5 -110 90l142 152l87 -73v-460l441 444l19 89l103 -53
q4 -48 -1.5 -84t-25 -68.5t-37 -52.5t-54.5 -57l-232 -232l359 -438z" />
    <glyph glyph-name="L" unicode="L" horiz-adv-x="1011" 
d="M890 244l91 -102l-33.5 -48l-25.5 -37t-19 -24.5t-17.5 -18t-17 -8.5t-22.5 -5.5t-29 -0.5h-488l-164 102q45 75 73 90q5 3 5.5 6t0.5 21v20v705q0 21 3 36q0 4 -2 5q-33 5 -110 90l142 152l87 -73v-934h495z" />
    <glyph glyph-name="M" unicode="M" horiz-adv-x="1556" 
d="M1317 979v-784l78 -77l-118 -129q-1 1 -8 11.5t-13 21l-15 27.5t-16 36t-14 41.5t-10.5 49.5t-3.5 55v673l-14 -52l-374 -767l-26 -68l-74 38q-4 35 9 80l-10 24l-330 653l-14 63v-679l78 -77l-118 -129q-1 1 -8 11.5t-13 21l-15 27.5t-16 36t-14 41.5t-10.5 49.5
t-3.5 55v748q0 21 3 36q0 4 -2 5q-33 5 -110 90l142 152l87 -74l411 -833l5 -37l417 869l87 74l142 -152q-77 -85 -110 -90q-3 -1 -2 -5q3 -15 3 -36z" />
    <glyph glyph-name="N" unicode="N" horiz-adv-x="1353" 
d="M1145 233q0 -36 -5 -58q-1 -6 4 -10q23 -19 57 -67l-123 -118l-28 20l-666 893l-20 51v-748l78 -77l-118 -129q-1 1 -8 11.5t-13 21l-15 27.5t-16 36t-14 41.5t-10.5 49.5t-3.5 55v748q0 21 3 36q0 4 -2 5q-33 5 -110 90l142 152l87 -74l636 -850l25 -53v735q0 28 3.5 55
t10.5 49.5t14 41.5t16 36l15 27.5t13 21t8 11.5l118 -129l-78 -77v-433v-391z" />
    <glyph glyph-name="O" unicode="O" horiz-adv-x="1279" 
d="M645 -9q-156 0 -283 84.5t-197 228.5t-70 317t65 312.5t186 220.5t275 81q155 0 285.5 -85t204 -226t73.5 -303q0 -281 -146.5 -455.5t-392.5 -174.5zM691 223q172 -4 277.5 83.5t105.5 226.5q0 86 -38.5 170.5t-103 149.5t-155.5 106t-190 44q-168 4 -276 -86.5
t-108 -224.5q0 -84 32.5 -165t91.5 -148.5t154 -110t210 -45.5z" />
    <glyph glyph-name="P" unicode="P" horiz-adv-x="1062" 
d="M642 1227q160 0 269.5 -118.5t109.5 -291.5q0 -77 -21.5 -138.5t-59 -100.5t-81 -66.5t-95 -41t-93.5 -19t-83 -5.5h-224v-240l78 -77l-118 -129q-1 1 -8 11.5t-13 21l-15 27.5t-16 36t-14 41.5t-10.5 49.5t-3.5 55v702q0 21 3 36q0 4 -2 5q-33 5 -110 90l142 152l87 -74
l51 45q106 29 227 29zM576 628q149 0 235 50.5t86 134.5q0 79 -73.5 132.5t-183.5 53.5q-75 0 -150 -19t-126 -51v-301h212z" />
    <glyph glyph-name="Q" unicode="Q" horiz-adv-x="1317" 
d="M1167 124l55 -167q-21 -24 -43 -33.5t-61 -9.5q-25 0 -67 34.5t-121 122.5q-122 -80 -285 -80q-156 0 -283 84.5t-197 228.5t-70 317t65 312.5t186 220.5t275 81q155 0 285.5 -85t204 -226t73.5 -303q0 -273 -137 -444l55 -68zM691 223q51 -1 96 6q-59 52 -103 60l-10 28
l112 130q50 -24 164 -154q124 88 124 240q0 86 -38.5 170.5t-103 149.5t-155.5 106t-190 44q-168 4 -276 -86.5t-108 -224.5q0 -84 32.5 -165t91.5 -148.5t154 -110t210 -45.5z" />
    <glyph glyph-name="R" unicode="R" horiz-adv-x="1113" 
d="M1024 224l64 -172q-8 -20 -30 -36t-42 -16q-86 0 -211 162l-219 284h-222v-240l78 -77l-118 -129q-1 1 -8 11.5t-13 21l-15 27.5t-16 36t-14 41.5t-10.5 49.5t-3.5 55v702q0 21 3 36q0 4 -2 5q-33 5 -110 90l142 152l87 -74l51 45q106 29 227 29q160 0 269.5 -118.5
t109.5 -291.5q0 -77 -21.5 -138.5t-60 -101.5t-82 -65.5t-95.5 -41.5l206 -264zM364 929v-301h212q149 0 235 50.5t86 134.5q0 79 -73.5 132.5t-183.5 53.5q-75 0 -150 -19t-126 -51z" />
    <glyph glyph-name="S" unicode="S" horiz-adv-x="1106" 
d="M836 875q-39 68 -119.5 104.5t-186.5 36.5q-143 0 -229.5 -44.5t-86.5 -137.5q0 -41 29.5 -65.5t72.5 -31t101 -2.5l222 16q105 8 190 -26t138.5 -113t53.5 -192q0 -192 -125.5 -309t-323.5 -117q-186 0 -292.5 57.5t-181.5 193.5l122 132q35 -69 132.5 -116t207.5 -47
q129 0 226 60.5t97 145.5q0 35 -23.5 60t-61.5 36t-85.5 15.5t-95.5 -0.5q-246 -20 -270 -20q-120 0 -193.5 77t-73.5 214q0 202 124.5 319t327.5 117q306 0 428 -242z" />
    <glyph glyph-name="T" unicode="T" horiz-adv-x="1095" 
d="M921 1227q18 0 29 -0.5t22.5 -5.5t17 -8.5t17.5 -18t19 -24.5l25.5 -37l33.5 -48l-91 -102l-31 24h-363v-801l78 -77l-118 -129q-1 1 -8 11.5t-13 21l-15 27.5t-16 36t-14 41.5t-10.5 49.5t-3.5 55v765h-348l-31 -24l-91 102l33.5 48l25.5 37t19 24.5t17.5 18t17 8.5
t22.5 5.5t29 0.5h747z" />
    <glyph glyph-name="U" unicode="U" horiz-adv-x="1310" 
d="M1130 1227l53 -36v-593q0 -282 -142.5 -443t-392.5 -161q-210 0 -318 153t-108 447v432q0 8 -1.5 10.5t-7.5 7.5t-14.5 11.5t-26.5 27.5t-40 51l157 93l53 -36v-567q0 -208 80.5 -303t257.5 -95q204 0 300.5 93.5t96.5 288.5v418q0 8 -1.5 10.5t-7.5 7.5t-14.5 11.5
t-26.5 27.5t-40 51z" />
    <glyph glyph-name="V" unicode="V" horiz-adv-x="1030" 
d="M925 1227q9 -9 22.5 -28.5t30.5 -67.5t17 -98q0 -119 -35.5 -265.5t-91 -278t-118 -244t-121.5 -179t-97 -66.5h-84l-346 980l-97 79l117 168q53 -24 102 -176l306 -861l7 19q127 138 234.5 378.5t107.5 422.5v8l-1 1q-22 -4 -103 82z" />
    <glyph glyph-name="W" unicode="W" horiz-adv-x="1568" 
d="M1398 1227q9 -9 22.5 -28.5t30.5 -67.5t17 -98q0 -148 -42 -335t-101.5 -338t-126.5 -255.5t-114 -104.5h-84l-180 574q-42 -150 -98.5 -282t-114 -212t-98.5 -80h-84l-307 980l-112 79l132 168q53 -24 102 -176l267 -861l7 19q84 91 147.5 247.5t93.5 325.5l-62 198
l-112 79l132 168q53 -24 102 -176l267 -861l7 19q114 125 188.5 362.5t74.5 438.5v8l-1 1q-22 -4 -103 82z" />
    <glyph glyph-name="X" unicode="X" horiz-adv-x="931" 
d="M817 232h91l-45 -232q-39 3 -82 34.5t-77 86.5l-83 134l-156 248q-128 -86 -225 -229.5t-97 -273.5l-135 21q0 103 46.5 226t130 235t181.5 178l-208 334l-104 15l59 218q39 -3 81 -34.5t76 -86.5l236 -379q107 71 198.5 192.5t91.5 199.5q0 57 -20 101l6 7l127 -23
q30 -89 -13.5 -222.5t-125.5 -248t-164 -165.5z" />
    <glyph glyph-name="Y" unicode="Y" horiz-adv-x="989" 
d="M585 509v-303l78 -77l-118 -129q-1 1 -8 11.5t-13 21l-15 27.5t-16 36t-14 41.5t-10.5 49.5t-3.5 55v248l-332 495l-128 54l79 188q19 -1 69.5 -41t91.5 -101l286 -425l14 41l215 372q24 40 67 90t84 64l58 -182l-105 -53z" />
    <glyph glyph-name="Z" unicode="Z" horiz-adv-x="1091" 
d="M955 244l91 -102l-33.5 -48l-25.5 -37t-19 -24.5t-17.5 -18t-17 -8.5t-22.5 -5.5t-29 -0.5h-812v222q36 0 81.5 37.5t87.5 97.5v-1l470 676l-77 -25h-465l-31 -24l-91 102l33.5 48l25.5 37t19 24.5t17.5 18t17 8.5t22.5 5.5t29 0.5h710v-220q-25 0 -51.5 -28t-66.5 -84
l-487 -700l57 25h553z" />
    <glyph glyph-name="bracketleft" unicode="[" 
 />
    <glyph glyph-name="backslash" unicode="\" 
 />
    <glyph glyph-name="bracketright" unicode="]" 
 />
    <glyph glyph-name="asciicircum" unicode="^" 
 />
    <glyph glyph-name="underscore" unicode="_" 
 />
    <glyph glyph-name="a" unicode="a" horiz-adv-x="845" 
d="M712 199l83 -89l-105 -110q-41 38 -58 97.5t-17 101.5q-125 -123 -192 -167t-131 -44q-63 0 -120 46t-90 113t-33 132q0 135 74.5 200t192.5 60l286 -12v59q0 45 -45 72.5t-119 27.5q-156 0 -254 -81l-92 100l15 55q76 69 167 103.5t178 34.5q106 0 183 -79.5t77 -187.5
v-432zM314 202q91 0 179.5 40t108.5 90v33l-250 12q-193 9 -193 -77q0 -30 42 -64t113 -34z" />
    <glyph glyph-name="b" unicode="b" horiz-adv-x="1034" 
d="M592 886q160 0 266 -120.5t106 -324.5q0 -90 -28.5 -169t-69.5 -128t-86.5 -84.5t-78.5 -50.5t-47 -14q-171 19 -317 183q-7 -43 -28.5 -94t-57.5 -84l-105 110l83 89v799q0 20 2 33q1 3 -1 3q-29 0 -105 85l134 144l80 -70v-397l11 17q74 41 127 57t115 16zM657 211
q89 26 140 88t51 142q0 134 -63.5 182.5t-196.5 48.5q-67 0 -141.5 -27t-107.5 -62v-158q33 -65 123 -132t195 -82z" />
    <glyph glyph-name="c" unicode="c" horiz-adv-x="852" 
d="M656 566q-19 41 -83 72.5t-148 31.5q-122 0 -192.5 -55t-70.5 -147q0 -127 91.5 -191.5t243.5 -64.5q59 0 119 25t69 59l13 6l99 -85q-45 -119 -127 -172t-203 -53q-178 0 -288 121.5t-110 331.5q0 197 107.5 325t272.5 128q228 0 335 -216l-119 -119z" />
    <glyph glyph-name="d" unicode="d" horiz-adv-x="989" 
d="M806 199l83 -89l-105 -110q-38 36 -60.5 91.5t-26.5 96.5l-18 -32q-141 -144 -298 -161q-12 1 -31.5 6t-49.5 18.5t-60.5 33t-61.5 52t-55 72t-39 97.5t-15 125q0 108 38.5 201.5t102 156.5t146.5 99t172 36q86 0 142 -54l26 -36v232q-28 0 -104 85l134 144l80 -70v-994z
M379 211q105 15 194 82t123 134v151q-6 43 -58.5 71.5t-129.5 28.5q-134 0 -228.5 -74.5t-94.5 -204.5q0 -135 194 -188z" />
    <glyph glyph-name="e" unicode="e" horiz-adv-x="865" 
d="M805 244q-25 -110 -119.5 -178t-216.5 -73q-97 -4 -173.5 25t-124 83t-72 124.5t-24.5 151.5q0 232 120.5 371.5t309.5 139.5q113 0 193.5 -71t80.5 -192q0 -102 -43.5 -166.5t-123.5 -81.5l-400 -85q20 -45 103.5 -65.5t153.5 -15.5q84 6 152.5 44.5t90.5 80.5l12 3z
M479 676q-95 -9 -177 -63.5t-100 -128.5l376 77q57 13 76 24.5t19 30.5q0 28 -56 48t-138 12z" />
    <glyph glyph-name="f" unicode="f" 
d="M276 903v-79h265l-37 -180h-228v-445l83 -89l-105 -110q-42 39 -65 101t-23 98v445h-77l-31 -24l-89 84l37 45.5t28.5 34l19.5 20t21 14t22 4t34 2.5h35v79q0 166 56.5 260.5t159.5 94.5q71 0 127 -75t64 -184l-93 -66l-13 8q0 54 -23.5 80.5t-63.5 26.5
q-104 0 -104 -145z" />
    <glyph glyph-name="g" unicode="g" horiz-adv-x="999" 
d="M775 870l134 -144q-76 -86 -105 -85q-2 0 -1 -3q2 -13 2 -33v-395q0 -174 -41.5 -307t-129.5 -212t-213 -79q-238 0 -348 160l123 152q22 -46 87.5 -71t149.5 -25q148 0 204.5 88.5t56.5 274.5l-27 -46q-64 -67 -125.5 -103t-140.5 -45q-25 4 -59.5 16t-84 44t-90 77
t-69.5 121t-29 169q0 128 59 234.5t158 167t213 60.5q48 0 83.5 -18t77.5 -53l35 -46v31zM398 213q104 15 182.5 79t114.5 135v125q-6 42 -75 81t-141 39q-127 0 -210.5 -71t-83.5 -177q0 -68 59 -126.5t154 -84.5z" />
    <glyph glyph-name="h" unicode="h" horiz-adv-x="1039" 
d="M906 199l83 -89l-105 -110q-42 39 -65 101t-23 98v431q-17 15 -54.5 26t-71.5 11q-79 0 -166 -77.5t-165 -212.5v-178l83 -89l-105 -110q-42 39 -65 101t-23 98v799q0 20 2 33q1 3 -1 3q-29 0 -105 85l134 144l80 -70v-567l25 46q90 113 159.5 161t146.5 48
q101 0 168.5 -63.5t67.5 -159.5v-459z" />
    <glyph glyph-name="i" unicode="i" horiz-adv-x="499" 
d="M360 1150q-13 -55 -30 -93t-30.5 -55t-31.5 -24t-26.5 -6.5t-21.5 3.5q-44 10 -106 52l99 200zM316 199l83 -89l-105 -110q-42 39 -65 101t-23 98v417v18q1 11 0 12.5t-6 3.5q-36 12 -100 85l134 146l82 -72v-610z" />
    <glyph glyph-name="j" unicode="j" horiz-adv-x="574" 
d="M228 1027l99 200l147 -77q-13 -55 -30 -93t-30.5 -55t-31.5 -24t-26.5 -6.5t-21.5 3.5q-44 10 -106 52zM221 -170q63 0 83.5 31.5t20.5 111.5v643q0 24 3 37q1 1 0.5 1.5t-1.5 -0.5q-28 -9 -113 73l140 154l81 -69v-839q0 -165 -56.5 -259t-159.5 -94q-85 0 -140 48
t-69 101l116 119q30 -58 95 -58z" />
    <glyph glyph-name="k" unicode="k" horiz-adv-x="921" 
d="M820 236l52 -198q-24 -38 -68 -38q-25 0 -52 26.5t-92 112.5l-200 296l-121 -88v-148l83 -89l-105 -110q-42 39 -65 101t-23 98v799q0 20 2 33q1 3 -1 3q-29 0 -105 85l134 144l80 -70v-633l338 246l18 76l86 -29q23 -64 -13.5 -144.5t-91.5 -119.5l-105 -74l196 -284z
" />
    <glyph glyph-name="l" unicode="l" horiz-adv-x="502" 
d="M319 199l83 -89l-105 -110q-42 40 -65 102.5t-23 96.5v799q0 20 2 33q1 3 -1 3q-29 0 -105 85l134 144l80 -70v-994z" />
    <glyph glyph-name="m" unicode="m" horiz-adv-x="1462" 
d="M1329 199l83 -89l-105 -110q-42 40 -65 102.5t-23 96.5v449q-8 9 -43.5 16.5t-62.5 7.5q-74 0 -162.5 -84.5t-125.5 -156.5v-232l83 -89l-105 -110q-42 40 -65 102.5t-23 96.5v449q-8 9 -43.5 16.5t-62.5 7.5q-62 0 -144.5 -82.5t-145.5 -201.5v-189l83 -89l-105 -110
q-42 40 -65 102.5t-23 96.5v417q0 20 2 33q1 3 -1 3q-29 0 -105 85l134 144l80 -70v-181l35 68q76 98 136.5 143t118.5 45q90 0 153 -65t63 -158v5l37 64q139 154 251 154q91 0 153.5 -65t62.5 -158v-464z" />
    <glyph glyph-name="n" unicode="n" horiz-adv-x="1017" 
d="M105 737l134 144l80 -70v-180l31 53q88 110 156 156t144 46q101 0 167.5 -63.5t66.5 -159.5v-464l83 -89l-105 -110q-42 40 -65 102.5t-23 96.5v437q-54 36 -124 36q-80 0 -167 -77.5t-164 -212.5v-183l83 -89l-105 -110q-42 40 -65 102.5t-23 96.5v417q0 20 2 33
q1 3 -1 3q-29 0 -105 85z" />
    <glyph glyph-name="o" unicode="o" horiz-adv-x="926" 
d="M466 -6q-175 0 -286 120.5t-111 321.5t106 327.5t273 126.5q174 0 291 -124t117 -318q0 -213 -105.5 -333.5t-284.5 -120.5zM498 220q127 0 193 39.5t66 128.5q0 120 -93 194.5t-238 79.5q-118 4 -188.5 -43t-70.5 -135q0 -107 88 -185.5t243 -78.5z" />
    <glyph glyph-name="p" unicode="p" horiz-adv-x="1034" 
d="M646 886q36 -9 71 -24t82 -49.5t81.5 -80.5t59 -121.5t24.5 -167.5q0 -205 -106.5 -326.5t-265.5 -121.5q-61 0 -112.5 15.5t-124.5 55.5l-16 16v-265l83 -89l-105 -110q-42 40 -65 102.5t-23 96.5v799q0 20 2 33q1 3 -1 3q-29 0 -105 85l134 144l80 -70v-79l37 47
q71 56 134 81t136 26zM588 207q132 0 196 52.5t64 183.5q0 78 -49 137.5t-137 89.5q-105 2 -198.5 -51.5t-124.5 -114.5v-205q32 -37 106 -64.5t143 -27.5z" />
    <glyph glyph-name="q" unicode="q" horiz-adv-x="1008" 
d="M804 -183l83 -89l-105 -110q-42 40 -65 102.5t-23 96.5v366l-33 -48q-67 -66 -128 -99t-133 -41q-26 4 -59 14.5t-83.5 40.5t-90.5 72.5t-69 117t-29 167.5q0 131 59 240.5t158 171.5t214 62q49 0 85.5 -18.5t97.5 -71.5l11 -28v48l80 70l134 -144q-76 -86 -105 -85
q-2 0 -1 -3q2 -13 2 -33v-799zM397 211q103 15 183 80t114 135v121q-6 43 -74.5 81.5t-141.5 38.5q-130 0 -211.5 -71.5t-81.5 -188.5q0 -65 58 -117t154 -79z" />
    <glyph glyph-name="r" unicode="r" horiz-adv-x="738" 
d="M513 886q110 0 176 -122l-95 -140q-6 46 -79 46q-41 0 -81 -44t-68 -104.5t-47 -130.5v-192l83 -89l-105 -110q-42 40 -65 102.5t-23 96.5v417q0 20 2 33q1 3 -1 3q-29 0 -105 85l134 144l80 -70v-160l17 45q28 78 76 134t101 56z" />
    <glyph glyph-name="s" unicode="s" horiz-adv-x="796" 
d="M409 211q77 0 141.5 27t64.5 66q0 36 -49 48.5t-121 6.5q-154 -13 -171 -13q-89 0 -145.5 57.5t-56.5 158.5q0 133 90.5 228.5t226.5 95.5q115 0 196.5 -58t102.5 -129l-96 -87q-25 28 -87.5 45t-137.5 17q-82 0 -134 -27t-52 -62q0 -32 42.5 -47.5t105.5 -10.5
q126 10 139 10q115 0 186.5 -57.5t71.5 -175.5q0 -117 -91 -213t-218 -96q-56 0 -101 9.5t-92 34t-81.5 75t-53.5 125.5l135 48q20 -37 70.5 -56.5t114.5 -19.5z" />
    <glyph glyph-name="t" unicode="t" horiz-adv-x="624" 
d="M473 324l102 -70q-7 -122 -56.5 -190.5t-136.5 -68.5q-103 0 -159.5 94t-56.5 259v260h-77l-30 -24l-90 100l33 47l25.5 36.5t18.5 24t17 18t17 8.5t22.5 5.5t28.5 0.5h35v75q0 25 3 37v1q-26 -10 -109 76l136 150l80 -71v-268h265l-37 -216h-228v-260q0 -95 17 -119
t87 -24q53 0 75 29.5t8 87.5z" />
    <glyph glyph-name="u" unicode="u" horiz-adv-x="1036" 
d="M903 199l83 -89l-105 -110q-42 40 -65 102.5t-23 96.5v68q-1 -5 -4 -8q-102 -143 -180.5 -203.5t-163.5 -60.5q-102 0 -169 63t-67 160v398q0 20 2 33q1 3 -1 3q-29 0 -105 85l134 144l80 -70v-565q17 -15 54.5 -26t71.5 -11q44 0 93.5 28.5t88.5 68t76.5 88t58 81
t31.5 54.5v87q0 20 2 33q1 3 -1 3q-29 0 -105 85l134 144l80 -70v-612z" />
    <glyph glyph-name="v" unicode="v" horiz-adv-x="782" 
d="M699 881l3 -3q2 -3 5.5 -7t8.5 -11t10 -15t10.5 -18.5t10.5 -21.5t9.5 -24.5t8 -28t5.5 -31t2 -33.5q0 -167 -58 -316.5t-153 -246.5t-206 -125h-79l-164 641q-6 23 -29.5 49t-40.5 38t-32 21l114 132l57 -45l163 -626q130 18 221.5 159t91.5 314q0 2 -4 2q-24 -2 -87 84
z" />
    <glyph glyph-name="w" unicode="w" horiz-adv-x="1217" 
d="M1129 881l3 -3q2 -3 5.5 -7t8.5 -11t10 -15t10.5 -18.5t10.5 -21.5t9.5 -24.5t8 -28t5.5 -31t2 -33.5q0 -257 -110 -451.5t-277 -236.5h-79l-74 331q-52 -130 -136 -217.5t-186 -113.5h-79l-144 641q-5 23 -29 49t-41 38t-32 21l114 132l57 -45l143 -626
q109 15 182.5 120t93.5 253l-13 58q-5 23 -29 49t-41 38t-32 21l114 132l57 -45l143 -626q85 12 150.5 82t99 173t33.5 218q0 2 -4 2q-24 -2 -87 84z" />
    <glyph glyph-name="x" unicode="x" horiz-adv-x="747" 
d="M622 881l100 -15q31 -130 -37 -261t-184 -197l127 -178l95 -4l-60 -226q-28 1 -51.5 19t-63.5 65l-182 252q-59 -38 -101.5 -71.5t-81.5 -75.5t-59 -89.5t-20 -99.5h-94q0 153 75.5 279.5t178.5 199.5l-109 158l-107 18l62 226q50 -6 120 -93l172 -243q92 46 159.5 126.5
t67.5 126.5q0 43 -13 75z" />
    <glyph glyph-name="y" unicode="y" horiz-adv-x="795" 
d="M707 881q11 -12 24 -31t30.5 -66.5t17.5 -96.5q0 -241 -347 -778q-47 -72 -94 -125.5t-90.5 -86t-74.5 -49.5t-66 -31l-97 210q29 0 78 12.5t112.5 47.5t96.5 84l32 47l-197 602q-12 39 -46.5 76.5t-68.5 52.5l114 132l63 -50l215 -694q102 156 178.5 326t76.5 220
q0 3 -1 3.5t-4 0t-10 2.5t-16 10t-25 25t-35 45z" />
    <glyph glyph-name="z" unicode="z" horiz-adv-x="792" 
d="M757 135l-37 -52.5t-27.5 -39l-18 -22t-19.5 -15t-21 -4.5t-32 -2h-524v212q28 0 67 28t70 67l259 372l-28 -10h-297l-27 -21l-87 98l37 52.5t27.5 39l18 22t19.5 15t21 4.5t32 2h493v-212q-33 0 -82 -60l-283 -407l24 10h301l27 22z" />
    <glyph glyph-name="braceleft" unicode="{" 
 />
    <glyph glyph-name="braceright" unicode="}" 
 />
    <glyph glyph-name="exclamdown" unicode="&#xa1;" 
 />
    <glyph glyph-name="guillemotleft" unicode="&#xab;" 
 />
    <glyph glyph-name="periodcentered" unicode="&#xb7;" 
 />
    <glyph glyph-name="guillemotright" unicode="&#xbb;" 
 />
    <glyph glyph-name="questiondown" unicode="&#xbf;" 
 />
    <glyph glyph-name="uni060C" unicode="&#x60c;" 
 />
    <glyph glyph-name="uni061B" unicode="&#x61b;" 
 />
    <glyph glyph-name="uni061F" unicode="&#x61f;" 
 />
    <glyph glyph-name="uni0621" unicode="&#x621;" 
 />
    <glyph glyph-name="uni0622" unicode="&#x622;" 
 />
    <glyph glyph-name="uni0623" unicode="&#x623;" 
 />
    <glyph glyph-name="uni0624" unicode="&#x624;" 
 />
    <glyph glyph-name="uni0625" unicode="&#x625;" 
 />
    <glyph glyph-name="uni0626" unicode="&#x626;" 
 />
    <glyph glyph-name="uni0627" unicode="&#x627;" 
 />
    <glyph glyph-name="uni0628" unicode="&#x628;" 
 />
    <glyph glyph-name="uni0629" unicode="&#x629;" 
 />
    <glyph glyph-name="uni062A" unicode="&#x62a;" 
 />
    <glyph glyph-name="uni062B" unicode="&#x62b;" 
 />
    <glyph glyph-name="uni062C" unicode="&#x62c;" 
 />
    <glyph glyph-name="uni062D" unicode="&#x62d;" 
 />
    <glyph glyph-name="uni062E" unicode="&#x62e;" 
 />
    <glyph glyph-name="uni062F" unicode="&#x62f;" 
 />
    <glyph glyph-name="uni0630" unicode="&#x630;" 
 />
    <glyph glyph-name="uni0631" unicode="&#x631;" 
 />
    <glyph glyph-name="uni0632" unicode="&#x632;" 
 />
    <glyph glyph-name="uni0633" unicode="&#x633;" 
 />
    <glyph glyph-name="uni0634" unicode="&#x634;" 
 />
    <glyph glyph-name="uni0635" unicode="&#x635;" 
 />
    <glyph glyph-name="uni0636" unicode="&#x636;" 
 />
    <glyph glyph-name="uni0637" unicode="&#x637;" 
 />
    <glyph glyph-name="uni0638" unicode="&#x638;" 
 />
    <glyph glyph-name="uni0639" unicode="&#x639;" 
 />
    <glyph glyph-name="uni063A" unicode="&#x63a;" 
 />
    <glyph glyph-name="uni0640" unicode="&#x640;" 
 />
    <glyph glyph-name="uni0641" unicode="&#x641;" 
 />
    <glyph glyph-name="uni0642" unicode="&#x642;" 
 />
    <glyph glyph-name="uni0643" unicode="&#x643;" 
 />
    <glyph glyph-name="uni0644" unicode="&#x644;" 
 />
    <glyph glyph-name="uni0645" unicode="&#x645;" 
 />
    <glyph glyph-name="uni0646" unicode="&#x646;" 
 />
    <glyph glyph-name="uni0647" unicode="&#x647;" 
 />
    <glyph glyph-name="uni0648" unicode="&#x648;" 
 />
    <glyph glyph-name="uni0649" unicode="&#x649;" 
 />
    <glyph glyph-name="uni064A" unicode="&#x64a;" 
 />
    <glyph glyph-name="uni064B" unicode="&#x64b;" horiz-adv-x="0" 
 />
    <glyph glyph-name="uni064C" unicode="&#x64c;" horiz-adv-x="0" 
 />
    <glyph glyph-name="uni064D" unicode="&#x64d;" horiz-adv-x="0" 
 />
    <glyph glyph-name="uni064E" unicode="&#x64e;" horiz-adv-x="0" 
 />
    <glyph glyph-name="uni064F" unicode="&#x64f;" horiz-adv-x="0" 
 />
    <glyph glyph-name="uni0650" unicode="&#x650;" horiz-adv-x="0" 
 />
    <glyph glyph-name="uni0651" unicode="&#x651;" horiz-adv-x="0" 
 />
    <glyph glyph-name="uni0652" unicode="&#x652;" horiz-adv-x="0" 
 />
    <glyph glyph-name="uni0653" unicode="&#x653;" horiz-adv-x="0" 
 />
    <glyph glyph-name="uni0654" unicode="&#x654;" horiz-adv-x="0" 
 />
    <glyph glyph-name="uni0655" unicode="&#x655;" horiz-adv-x="0" 
 />
    <glyph glyph-name="uni0656" unicode="&#x656;" horiz-adv-x="0" 
 />
    <glyph glyph-name="uni0660" unicode="&#x660;" 
 />
    <glyph glyph-name="uni0661" unicode="&#x661;" 
 />
    <glyph glyph-name="uni0662" unicode="&#x662;" 
 />
    <glyph glyph-name="uni0663" unicode="&#x663;" 
 />
    <glyph glyph-name="uni0664" unicode="&#x664;" 
 />
    <glyph glyph-name="uni0665" unicode="&#x665;" 
 />
    <glyph glyph-name="uni0666" unicode="&#x666;" 
 />
    <glyph glyph-name="uni0667" unicode="&#x667;" 
 />
    <glyph glyph-name="uni0668" unicode="&#x668;" 
 />
    <glyph glyph-name="uni0669" unicode="&#x669;" 
 />
    <glyph glyph-name="uni066A" unicode="&#x66a;" 
 />
    <glyph glyph-name="uni066B" unicode="&#x66b;" 
 />
    <glyph glyph-name="uni066C" unicode="&#x66c;" 
 />
    <glyph glyph-name="uni066D" unicode="&#x66d;" 
 />
    <glyph glyph-name="uni066E" unicode="&#x66e;" 
 />
    <glyph glyph-name="uni066F" unicode="&#x66f;" 
 />
    <glyph glyph-name="uni0670" unicode="&#x670;" horiz-adv-x="0" 
 />
    <glyph glyph-name="uni0671" unicode="&#x671;" 
 />
    <glyph glyph-name="uni067E" unicode="&#x67e;" 
 />
    <glyph glyph-name="uni0686" unicode="&#x686;" 
 />
    <glyph glyph-name="uni0698" unicode="&#x698;" 
 />
    <glyph glyph-name="uni06A1" unicode="&#x6a1;" 
 />
    <glyph glyph-name="uni06A4" unicode="&#x6a4;" 
 />
    <glyph glyph-name="uni06A9" unicode="&#x6a9;" 
 />
    <glyph glyph-name="uni06AF" unicode="&#x6af;" 
 />
    <glyph glyph-name="uni06BA" unicode="&#x6ba;" 
 />
    <glyph glyph-name="uni06CC" unicode="&#x6cc;" 
 />
    <glyph glyph-name="uni06F0" unicode="&#x6f0;" 
 />
    <glyph glyph-name="uni06F1" unicode="&#x6f1;" 
 />
    <glyph glyph-name="uni06F2" unicode="&#x6f2;" 
 />
    <glyph glyph-name="uni06F3" unicode="&#x6f3;" 
 />
    <glyph glyph-name="uni06F4" unicode="&#x6f4;" 
 />
    <glyph glyph-name="uni06F5" unicode="&#x6f5;" 
 />
    <glyph glyph-name="uni06F6" unicode="&#x6f6;" 
 />
    <glyph glyph-name="uni06F7" unicode="&#x6f7;" 
 />
    <glyph glyph-name="uni06F8" unicode="&#x6f8;" 
 />
    <glyph glyph-name="uni06F9" unicode="&#x6f9;" 
 />
    <glyph glyph-name="uni200C" unicode="&#x200c;" 
 />
    <glyph glyph-name="endash" unicode="&#x2013;" 
 />
    <glyph glyph-name="emdash" unicode="&#x2014;" 
 />
    <glyph glyph-name="quoteleft" unicode="&#x2018;" 
 />
    <glyph glyph-name="quoteright" unicode="&#x2019;" 
 />
    <glyph glyph-name="quotesinglbase" unicode="&#x201a;" 
 />
    <glyph glyph-name="quotedblleft" unicode="&#x201c;" 
 />
    <glyph glyph-name="quotedblright" unicode="&#x201d;" 
 />
    <glyph glyph-name="quotedblbase" unicode="&#x201e;" 
 />
    <glyph glyph-name="bullet" unicode="&#x2022;" 
 />
    <glyph glyph-name="ellipsis" unicode="&#x2026;" 
 />
    <glyph glyph-name="guilsinglleft" unicode="&#x2039;" 
 />
    <glyph glyph-name="guilsinglright" unicode="&#x203a;" 
 />
    <glyph glyph-name="uniFBB2" unicode="&#xfbb2;" horiz-adv-x="0" 
 />
    <glyph glyph-name="uniFBB3" unicode="&#xfbb3;" horiz-adv-x="0" 
 />
    <glyph glyph-name="uniFBB4" unicode="&#xfbb4;" horiz-adv-x="0" 
 />
    <glyph glyph-name="uniFBB5" unicode="&#xfbb5;" horiz-adv-x="0" 
 />
    <glyph glyph-name="uniFBB6" unicode="&#xfbb6;" horiz-adv-x="0" 
 />
    <glyph glyph-name="uniFBB7" unicode="&#xfbb7;" horiz-adv-x="0" 
 />
    <glyph glyph-name="uniFBB8" unicode="&#xfbb8;" horiz-adv-x="0" 
 />
    <glyph glyph-name="uniFBB9" unicode="&#xfbb9;" horiz-adv-x="0" 
 />
    <glyph glyph-name="uniFBBD" unicode="&#xfbbd;" horiz-adv-x="0" 
 />
    <glyph glyph-name="uniFBBE" unicode="&#xfbbe;" horiz-adv-x="0" 
 />
    <glyph glyph-name="uniFD3E" unicode="&#xfd3e;" 
 />
    <glyph glyph-name="uniFD3F" unicode="&#xfd3f;" 
 />
    <glyph glyph-name="uni0627.short" 
 />
    <glyph glyph-name="uniFE8E.short" 
 />
    <glyph glyph-name="uni06280626" 
 />
    <glyph glyph-name="uni06280626.fina" 
 />
    <glyph glyph-name="uni067E0631.fina" 
 />
    <glyph glyph-name="uni067E0632.fina" 
 />
    <glyph glyph-name="uni067E0645" 
 />
    <glyph glyph-name="uni067E0645.fina" 
 />
    <glyph glyph-name="uni067E0645.medi" 
 />
    <glyph glyph-name="uni067E0645.init" 
 />
    <glyph glyph-name="uni067E0646.fina" 
 />
    <glyph glyph-name="uni067E0647.medi" 
 />
    <glyph glyph-name="uni067E0647.init" 
 />
    <glyph glyph-name="uni067E0649" 
 />
    <glyph glyph-name="uni067E0649.fina" 
 />
    <glyph glyph-name="uni067E064A" 
 />
    <glyph glyph-name="uni067E064A.fina" 
 />
    <glyph glyph-name="uni067E0626" 
 />
    <glyph glyph-name="uni067E0626.fina" 
 />
    <glyph glyph-name="uni062A0626" 
 />
    <glyph glyph-name="uni062A0626.fina" 
 />
    <glyph glyph-name="uni062B0647.init" 
 />
    <glyph glyph-name="uni062B0626" 
 />
    <glyph glyph-name="uni062B0626.fina" 
 />
    <glyph glyph-name="uni062E0626" 
 />
    <glyph glyph-name="uni062E0626.fina" 
 />
    <glyph glyph-name="uniFC1F.fina" 
 />
    <glyph glyph-name="uni06330632" 
 />
    <glyph glyph-name="uni06330632.fina" 
 />
    <glyph glyph-name="uni06330626" 
 />
    <glyph glyph-name="uni06330626.fina" 
 />
    <glyph glyph-name="uni06340632" 
 />
    <glyph glyph-name="uni06340632.fina" 
 />
    <glyph glyph-name="uni06340626" 
 />
    <glyph glyph-name="uni06340626.fina" 
 />
    <glyph glyph-name="uni06350632" 
 />
    <glyph glyph-name="uni06350632.fina" 
 />
    <glyph glyph-name="uniFC21.medi" 
 />
    <glyph glyph-name="uni06350647.medi" 
 />
    <glyph glyph-name="uni06350647.init" 
 />
    <glyph glyph-name="uni06350626" 
 />
    <glyph glyph-name="uni06350626.fina" 
 />
    <glyph glyph-name="uni06360632" 
 />
    <glyph glyph-name="uni06360632.fina" 
 />
    <glyph glyph-name="uniFC25.medi" 
 />
    <glyph glyph-name="uni06360647.medi" 
 />
    <glyph glyph-name="uni06360647.init" 
 />
    <glyph glyph-name="uni06360626" 
 />
    <glyph glyph-name="uni06360626.fina" 
 />
    <glyph glyph-name="uni06410626" 
 />
    <glyph glyph-name="uni06420626" 
 />
    <glyph glyph-name="uni06430626" 
 />
    <glyph glyph-name="uni06430626.fina" 
 />
    <glyph glyph-name="uni06A9064A" 
 />
    <glyph glyph-name="uni06AF0649" 
 />
    <glyph glyph-name="uni06AF0649.fina" 
 />
    <glyph glyph-name="uni06AF064A" 
 />
    <glyph glyph-name="uni06AF064A.fina" 
 />
    <glyph glyph-name="uni06AF0626" 
 />
    <glyph glyph-name="uni06AF0626.fina" 
 />
    <glyph glyph-name="uni064406280645" 
 />
    <glyph glyph-name="uni0644067E0645" 
 />
    <glyph glyph-name="uni0644062A0645" 
 />
    <glyph glyph-name="uni0644062B0645" 
 />
    <glyph glyph-name="uni064406460645" 
 />
    <glyph glyph-name="uni064406490645" 
 />
    <glyph glyph-name="uni0644064A0645" 
 />
    <glyph glyph-name="uni06440626" 
 />
    <glyph glyph-name="uni06440626.fina" 
 />
    <glyph glyph-name="uni064406260645" 
 />
    <glyph glyph-name="uni06450631.fina" 
 />
    <glyph glyph-name="uni06450632.fina" 
 />
    <glyph glyph-name="uni06460626" 
 />
    <glyph glyph-name="uni06460626.fina" 
 />
    <glyph glyph-name="uni06490631.fina" 
 />
    <glyph glyph-name="uni06490632.fina" 
 />
    <glyph glyph-name="uni06490645" 
 />
    <glyph glyph-name="uni06490645.fina" 
 />
    <glyph glyph-name="uni06490645.medi" 
 />
    <glyph glyph-name="uni06490645.init" 
 />
    <glyph glyph-name="uni06490646.fina" 
 />
    <glyph glyph-name="uni06490647.medi" 
 />
    <glyph glyph-name="uni06490647.init" 
 />
    <glyph glyph-name="uni06260626" 
 />
    <glyph glyph-name="uni06260626.fina" 
 />
    <glyph glyph-name="zero.osf" 
 />
    <glyph glyph-name="one.osf" 
 />
    <glyph glyph-name="two.osf" 
 />
    <glyph glyph-name="three.osf" 
 />
    <glyph glyph-name="four.osf" 
 />
    <glyph glyph-name="five.osf" 
 />
    <glyph glyph-name="six.osf" 
 />
    <glyph glyph-name="seven.osf" 
 />
    <glyph glyph-name="eight.osf" 
 />
    <glyph glyph-name="nine.osf" 
 />
    <glyph glyph-name="ellipsis.001" 
 />
    <glyph glyph-name="dotcenterar" horiz-adv-x="0" 
 />
    <glyph glyph-name="waslaar" horiz-adv-x="0" 
 />
    <glyph glyph-name="hamzacenterar" horiz-adv-x="0" 
 />
    <glyph glyph-name="hamzaaboveDammaar" horiz-adv-x="0" 
 />
    <glyph glyph-name="hamzaaboveDammatanar" horiz-adv-x="0" 
 />
    <glyph glyph-name="hamzaaboveFathaar" horiz-adv-x="0" 
 />
    <glyph glyph-name="hamzaaboveFathatanar" horiz-adv-x="0" 
 />
    <glyph glyph-name="hamzaaboveSukunar" horiz-adv-x="0" 
 />
    <glyph glyph-name="hamzabelowKasraar" horiz-adv-x="0" 
 />
    <glyph glyph-name="hamzabelowKasratanar" horiz-adv-x="0" 
 />
    <glyph glyph-name="shaddaAlefabovear" horiz-adv-x="0" 
 />
    <glyph glyph-name="shaddaDammaar" horiz-adv-x="0" 
 />
    <glyph glyph-name="shaddaDammatanar" horiz-adv-x="0" 
 />
    <glyph glyph-name="shaddaFathaar" horiz-adv-x="0" 
 />
    <glyph glyph-name="shaddaFathatanar" horiz-adv-x="0" 
 />
    <glyph glyph-name="shaddaKasraar" horiz-adv-x="0" 
 />
    <glyph glyph-name="shaddaKasratanar" horiz-adv-x="0" 
 />
    <glyph glyph-name="Nonbreaking" 
 />
  </font>
</defs>
</svg>
