<?xml version="1.0" encoding="utf-8"?>
<!-- Generator: Adobe Illustrator 19.0.0, SVG Export Plug-In . SVG Version: 6.00 Build 0)  -->
<svg version="1.1" xmlns="http://www.w3.org/2000/svg" xmlns:xlink="http://www.w3.org/1999/xlink" x="0px" y="0px"
	 viewBox="0 0 1024 768" style="enable-background:new 0 0 1024 768;" xml:space="preserve">
<style type="text/css">
	.st0{fill:#1A1A1A;}
	.st1{fill:none;stroke:#000001;stroke-width:0.288;stroke-miterlimit:2.6131;}
	.st2{fill:#999999;}
</style>
<g id="Layer_1">
	<g id="XMLID_44_">
		<polygon id="XMLID_48_" class="st0" points="383.5,226.1 366.5,287.9 468.3,510.3 706.5,542.5 797.1,501.4 490.9,461 		"/>
		<polygon id="XMLID_47_" class="st0" points="325.6,56.6 370.1,63.7 214,623 169.5,615.9 		"/>
		<polygon id="XMLID_46_" class="st0" points="936.8,487.2 936.8,535.6 549.7,711.2 549.7,663.3 		"/>
		<polygon id="XMLID_45_" class="st0" points="469.7,649.9 549.7,663.3 549.7,711.2 469.5,698.5 		"/>
	</g>
	<path id="XMLID_43_" class="st1" d="M370.1,63.7"/>
	<path id="XMLID_36_" class="st0" d="M538.8,432.2L370.8,62.9l-45.9-7.3L168.6,615.7l-0.3,1l44.6,7l-0.3,0.9l71.1-32.2l-0.4-0.9
		l0.9,0.3l82.5-301.2l100.7,220.1l0.2,0.5L703.2,543L468.8,649.3l-0.2,50l81,12.8l1.3-0.6l386-175.3l0.9-49.8L538.8,432.2z
		 M326.2,57.7l42.7,6.8L213.4,621.9l-42.7-6.8L326.2,57.7z M282.5,590.9l-67.1,30.4L370.4,66.4l167.2,367.5l395.8,53.7L549.6,662.3
		l-76.7-12.9l324.6-147.2l-0.3-1.8l-305.7-40.4l-108.4-237L282.5,590.9z M468.9,509.4L367.5,287.8l16.1-58.9l106.4,232.5l0.8-0.4
		l-0.1,0.9l303,40l-87.3,39.6L468.9,509.4z M470.4,697.7l0.2-46.7l78.1,13.1v46L470.4,697.7z M550.7,709.7v-45.8l385.2-175.3
		L935,535L550.7,709.7z"/>
	<polyline id="XMLID_1_" class="st2" points="680,539.9 417.5,657.5 468.6,699.3 468.8,649.3 703.2,543 	"/>
	<polyline id="XMLID_3_" class="st2" points="168.3,616.7 195.3,520 138.2,425.3 216.1,445.5 227.1,406.1 7.5,349.1 168.3,616.7 	
		"/>
	<polygon id="XMLID_5_" class="st2" points="317.1,471.7 328,432.1 445.5,462.7 467.7,511.1 	"/>
</g>
<g id="Layer_2">
</g>
</svg>
